{
 "cells": [
  {
   "cell_type": "code",
   "execution_count": 1,
   "metadata": {},
   "outputs": [
    {
     "data": {
      "text/plain": [
       "'/Users/angeldog/Documents/LLM'"
      ]
     },
     "execution_count": 1,
     "metadata": {},
     "output_type": "execute_result"
    }
   ],
   "source": [
    "import os\n",
    "os.getcwd()"
   ]
  },
  {
   "cell_type": "code",
   "execution_count": 3,
   "metadata": {},
   "outputs": [],
   "source": [
    "# import ffmpeg # Install this package yourself in whisper_env\n",
    "import subprocess"
   ]
  },
  {
   "cell_type": "code",
   "execution_count": 4,
   "metadata": {},
   "outputs": [],
   "source": [
    "input_file = \"./Malcom class 1 audio.m4a\"  # Replace with your m4a, mp4, webm,... file path\n",
    "output_mp3_file = \"./Malcom class 1 audio.mp3\"  # Replace with desired output MP3 file path\n",
    "\n",
    "# Can you turn this into a folder parameter and wrap the function below in a loop to work on non mp3 files within the folder?\n"
   ]
  },
  {
   "cell_type": "code",
   "execution_count": 5,
   "metadata": {},
   "outputs": [],
   "source": [
    "def convert_to_mp3(input_file, output_file):\n",
    "    command = [\n",
    "        \"ffmpeg\",\n",
    "        \"-i\", input_file,   # Input file (WEBM)\n",
    "        \"-q:a\", \"0\",        # Best audio quality\n",
    "        \"-map\", \"a\",        # Extract audio only\n",
    "        output_file         # Output file (MP3)\n",
    "    ]\n",
    "    \n",
    "    subprocess.run(command, check=True)\n",
    "    print(f\"Conversion complete: {output_file}\")"
   ]
  },
  {
   "cell_type": "code",
   "execution_count": 6,
   "metadata": {},
   "outputs": [
    {
     "name": "stderr",
     "output_type": "stream",
     "text": [
      "ffmpeg version 6.1.1 Copyright (c) 2000-2023 the FFmpeg developers\n",
      "  built with clang version 14.0.6\n",
      "  configuration: --prefix=/opt/anaconda3 --cc=arm64-apple-darwin20.0.0-clang --ar=arm64-apple-darwin20.0.0-ar --nm=arm64-apple-darwin20.0.0-nm --ranlib=arm64-apple-darwin20.0.0-ranlib --strip=arm64-apple-darwin20.0.0-strip --disable-doc --enable-swresample --enable-swscale --enable-openssl --enable-libxml2 --enable-libtheora --enable-demuxer=dash --enable-postproc --enable-hardcoded-tables --enable-libfreetype --enable-libharfbuzz --enable-libfontconfig --enable-libdav1d --enable-zlib --enable-libaom --enable-pic --enable-shared --disable-static --disable-gpl --enable-version3 --disable-sdl2 --enable-libopenh264 --enable-libopus --enable-libmp3lame --enable-libopenjpeg --enable-libvorbis --enable-pthreads --enable-libtesseract --enable-libvpx --enable-librsvg\n",
      "  libavutil      58. 29.100 / 58. 29.100\n",
      "  libavcodec     60. 31.102 / 60. 31.102\n",
      "  libavformat    60. 16.100 / 60. 16.100\n",
      "  libavdevice    60.  3.100 / 60.  3.100\n",
      "  libavfilter     9. 12.100 /  9. 12.100\n",
      "  libswscale      7.  5.100 /  7.  5.100\n",
      "  libswresample   4. 12.100 /  4. 12.100\n",
      "Input #0, mov,mp4,m4a,3gp,3g2,mj2, from './Malcom class 1 audio.m4a':\n",
      "  Metadata:\n",
      "    major_brand     : M4A \n",
      "    minor_version   : 0\n",
      "    compatible_brands: M4A isommp42\n",
      "    creation_time   : 2025-06-30T13:23:19.000000Z\n",
      "    iTunSMPB        :  00000000 00000840 00000000 0000000009D96BC0 00000000 00000000 00000000 00000000 00000000 00000000 00000000 00000000\n",
      "  Duration: 00:57:22.62, start: 0.044000, bitrate: 245 kb/s\n",
      "  Stream #0:0[0x1](und): Audio: aac (LC) (mp4a / 0x6134706D), 48000 Hz, mono, fltp, 244 kb/s (default)\n",
      "    Metadata:\n",
      "      creation_time   : 2025-06-30T13:23:19.000000Z\n",
      "      handler_name    : Core Media Audio\n",
      "      vendor_id       : [0][0][0][0]\n",
      "Stream mapping:\n",
      "  Stream #0:0 -> #0:0 (aac (native) -> mp3 (libmp3lame))\n",
      "Press [q] to stop, [?] for help\n",
      "Output #0, mp3, to './Malcom class 1 audio.mp3':\n",
      "  Metadata:\n",
      "    major_brand     : M4A \n",
      "    minor_version   : 0\n",
      "    compatible_brands: M4A isommp42\n",
      "    iTunSMPB        :  00000000 00000840 00000000 0000000009D96BC0 00000000 00000000 00000000 00000000 00000000 00000000 00000000 00000000\n",
      "    TSSE            : Lavf60.16.100\n",
      "  Stream #0:0(und): Audio: mp3, 48000 Hz, mono, fltp (default)\n",
      "    Metadata:\n",
      "      creation_time   : 2025-06-30T13:23:19.000000Z\n",
      "      handler_name    : Core Media Audio\n",
      "      vendor_id       : [0][0][0][0]\n",
      "      encoder         : Lavc60.31.102 libmp3lame\n",
      "size=   52736kB time=00:56:06.07 bitrate= 128.3kbits/s speed= 217x    \r"
     ]
    },
    {
     "name": "stdout",
     "output_type": "stream",
     "text": [
      "Conversion complete: ./Malcom class 1 audio.mp3\n"
     ]
    },
    {
     "name": "stderr",
     "output_type": "stream",
     "text": [
      "[out#0/mp3 @ 0x14ee18590] video:0kB audio:54152kB subtitle:0kB other streams:0kB global headers:0kB muxing overhead: 0.000849%\n",
      "size=   54153kB time=00:57:22.56 bitrate= 128.9kbits/s speed= 217x    \n"
     ]
    }
   ],
   "source": [
    "convert_to_mp3(input_file, output_mp3_file)"
   ]
  },
  {
   "cell_type": "code",
   "execution_count": 11,
   "metadata": {},
   "outputs": [
    {
     "name": "stdout",
     "output_type": "stream",
     "text": [
      "/Users/angeldog/Documents/LLM\n"
     ]
    },
    {
     "data": {
      "text/plain": [
       "CompletedProcess(args=['pwd'], returncode=0)"
      ]
     },
     "execution_count": 11,
     "metadata": {},
     "output_type": "execute_result"
    }
   ],
   "source": [
    "subprocess.run([\"pwd\"])"
   ]
  },
  {
   "cell_type": "code",
   "execution_count": 12,
   "metadata": {},
   "outputs": [
    {
     "data": {
      "text/plain": [
       "'/Users/angeldog/Documents/LLM'"
      ]
     },
     "execution_count": 12,
     "metadata": {},
     "output_type": "execute_result"
    }
   ],
   "source": [
    "os.getcwd()"
   ]
  },
  {
   "cell_type": "code",
   "execution_count": null,
   "metadata": {},
   "outputs": [],
   "source": []
  }
 ],
 "metadata": {
  "kernelspec": {
   "display_name": "base",
   "language": "python",
   "name": "python3"
  },
  "language_info": {
   "codemirror_mode": {
    "name": "ipython",
    "version": 3
   },
   "file_extension": ".py",
   "mimetype": "text/x-python",
   "name": "python",
   "nbconvert_exporter": "python",
   "pygments_lexer": "ipython3",
   "version": "3.11.7"
  }
 },
 "nbformat": 4,
 "nbformat_minor": 2
}
